<?xml version="1.0" encoding="UTF-8" standalone="no"?><svg xmlns="http://www.w3.org/2000/svg" xmlns:xlink= "http://www.w3.org/1999/xlink" width="600" height="390" aria-label="A chart." style="overflow: hidden;"><defs id="_ABSTRACT_RENDERER_ID_2586"><clipPath id="_ABSTRACT_RENDERER_ID_2587"><rect x="115" y="75" width="371" height="241"></rect></clipPath></defs><rect x="0" y="0" width="600" height="390" stroke="none" stroke-width="0" fill="#ffffff"></rect><g><text text-anchor="start" x="115" y="52.05" font-family="Arial" font-size="13" font-weight="bold" stroke="none" stroke-width="0" fill="#000000">Time to First Response</text><rect x="115" y="41" width="371" height="13" stroke="none" stroke-width="0" fill-opacity="0" fill="#ffffff"></rect></g><g><rect x="499" y="75" width="88" height="55" stroke="none" stroke-width="0" fill-opacity="0" fill="#ffffff"></rect><g><rect x="499" y="75" width="88" height="13" stroke="none" stroke-width="0" fill-opacity="0" fill="#ffffff"></rect><g><text text-anchor="start" x="530" y="86.05" font-family="Arial" font-size="13" stroke="none" stroke-width="0" fill="#222222">JVM</text></g><rect x="499" y="75" width="26" height="13" stroke="none" stroke-width="0" fill="#3366cc"></rect></g><g><rect x="499" y="96" width="88" height="13" stroke="none" stroke-width="0" fill-opacity="0" fill="#ffffff"></rect><g><text text-anchor="start" x="530" y="107.05" font-family="Arial" font-size="13" stroke="none" stroke-width="0" fill="#222222">Native</text></g><rect x="499" y="96" width="26" height="13" stroke="none" stroke-width="0" fill="#dc3912"></rect></g><g><rect x="499" y="117" width="88" height="13" stroke="none" stroke-width="0" fill-opacity="0" fill="#ffffff"></rect><g><text text-anchor="start" x="530" y="128.05" font-family="Arial" font-size="13" stroke="none" stroke-width="0" fill="#222222">PGO</text></g><rect x="499" y="117" width="26" height="13" stroke="none" stroke-width="0" fill="#ff9900"></rect></g></g><g><rect x="115" y="75" width="371" height="241" stroke="none" stroke-width="0" fill-opacity="0" fill="#ffffff"></rect><g clip-path="url(https://www.rapidtables.com/tools/bar-graph.html#_ABSTRACT_RENDERER_ID_2587)"><g><rect x="115" y="315" width="371" height="1" stroke="none" stroke-width="0" fill="#cccccc"></rect><rect x="115" y="255" width="371" height="1" stroke="none" stroke-width="0" fill="#cccccc"></rect><rect x="115" y="195" width="371" height="1" stroke="none" stroke-width="0" fill="#cccccc"></rect><rect x="115" y="135" width="371" height="1" stroke="none" stroke-width="0" fill="#cccccc"></rect><rect x="115" y="75" width="371" height="1" stroke="none" stroke-width="0" fill="#cccccc"></rect><rect x="115" y="285" width="371" height="1" stroke="none" stroke-width="0" fill="#ebebeb"></rect><rect x="115" y="225" width="371" height="1" stroke="none" stroke-width="0" fill="#ebebeb"></rect><rect x="115" y="165" width="371" height="1" stroke="none" stroke-width="0" fill="#ebebeb"></rect><rect x="115" y="105" width="371" height="1" stroke="none" stroke-width="0" fill="#ebebeb"></rect></g><g><rect x="139" y="117" width="25" height="198" stroke="none" stroke-width="0" fill="#3366cc"></rect><rect x="262" y="107" width="25" height="208" stroke="none" stroke-width="0" fill="#3366cc"></rect><rect x="386" y="106" width="24" height="209" stroke="none" stroke-width="0" fill="#3366cc"></rect><rect x="165" y="278" width="25" height="37" stroke="none" stroke-width="0" fill="#dc3912"></rect><rect x="288" y="307" width="25" height="8" stroke="none" stroke-width="0" fill="#dc3912"></rect><rect x="411" y="306" width="25" height="9" stroke="none" stroke-width="0" fill="#dc3912"></rect><rect x="191" y="286" width="24" height="29" stroke="none" stroke-width="0" fill="#ff9900"></rect><rect x="314" y="309" width="25" height="6" stroke="none" stroke-width="0" fill="#ff9900"></rect><rect x="437" y="311" width="25" height="4" stroke="none" stroke-width="0" fill="#ff9900"></rect></g><g><rect x="115" y="315" width="371" height="1" stroke="none" stroke-width="0" fill="#333333"></rect></g></g><g></g><g><g><text text-anchor="middle" x="177.16666666666666" y="335.05" font-family="Arial" font-size="13" stroke="none" stroke-width="0" fill="#222222">#1</text></g><g><text text-anchor="middle" x="300.5" y="335.05" font-family="Arial" font-size="13" stroke="none" stroke-width="0" fill="#222222">#2</text></g><g><text text-anchor="middle" x="423.8333333333333" y="335.05" font-family="Arial" font-size="13" stroke="none" stroke-width="0" fill="#222222">#3</text></g><g><text text-anchor="end" x="102" y="320.05" font-family="Arial" font-size="13" stroke="none" stroke-width="0" fill="#444444">0</text></g><g><text text-anchor="end" x="102" y="260.05" font-family="Arial" font-size="13" stroke="none" stroke-width="0" fill="#444444">500</text></g><g><text text-anchor="end" x="102" y="200.05" font-family="Arial" font-size="13" stroke="none" stroke-width="0" fill="#444444">1,000</text></g><g><text text-anchor="end" x="102" y="140.05" font-family="Arial" font-size="13" stroke="none" stroke-width="0" fill="#444444">1,500</text></g><g><text text-anchor="end" x="102" y="80.05" font-family="Arial" font-size="13" stroke="none" stroke-width="0" fill="#444444">2,000</text></g></g></g><g><g><text text-anchor="middle" x="300.5" y="368.05" font-family="Arial" font-size="13" font-style="italic" stroke="none" stroke-width="0" fill="#222222">* Lower is better</text><rect x="115" y="357" width="371" height="13" stroke="none" stroke-width="0" fill-opacity="0" fill="#ffffff"></rect></g><g><text text-anchor="middle" x="39.05" y="195.5" font-family="Arial" font-size="13" font-style="italic" transform="rotate(-90 39.05 195.5)" stroke="none" stroke-width="0" fill="#222222">milliseconds</text><path d="M27.999999999999996,316L28.00000000000001,75L41.00000000000001,75L40.99999999999999,316Z" stroke="none" stroke-width="0" fill-opacity="0" fill="#ffffff"></path></g></g><g></g></svg>